<svg xmlns="http://www.w3.org/2000/svg" viewBox="98.40615237536849 0.41207016367252436 1037.175859672655 1037.175859672655"><rect x="98.40615237536849" y="0.41207016367252436" width="1037.175859672655" height="1037.175859672655" rx="0.0" fill="#0a1230"/><defs><linearGradient id="g" gradientUnits="userSpaceOnUse" x1="50" y1="272" x2="954" y2="766"><stop offset="0" stop-color="#14c0ff"/><stop offset=".42" stop-color="#2f6bff"/><stop offset=".74" stop-color="#4a45ee"/><stop offset="1" stop-color="#9a5cff"/></linearGradient></defs><path d="M697.4,763.7C695.1,761.9 688.7,756.7 683.0,752.0C677.4,747.3 669.1,740.7 664.6,737.2C660.2,733.7 655.4,729.9 654.0,728.6C652.6,727.4 644.5,720.9 636.0,714.0C627.5,707.2 620.3,701.4 620.0,701.0C619.7,700.7 615.6,697.4 610.8,693.7C606.1,690.0 601.6,686.4 600.8,685.8C599.0,684.1 594.1,680.1 590.0,677.0C588.2,675.6 580.8,669.8 573.7,664.0C566.6,658.2 558.4,651.7 555.5,649.4C549.1,644.4 528.7,627.8 528.0,627.0C527.6,626.5 517.4,618.3 509.0,611.7C505.8,609.2 496.5,601.5 496.0,601.0C495.7,600.7 489.4,595.6 482.0,589.7C464.8,575.9 467.5,578.1 452.6,566.0C432.2,549.4 427.5,545.7 424.0,543.0C419.9,540.0 414.7,535.7 414.0,535.0C413.7,534.6 404.3,527.0 393.0,518.0C381.7,508.9 371.9,501.0 371.2,500.3C370.4,499.5 368.2,497.7 366.2,496.3C364.1,494.8 360.2,491.6 357.4,489.3C354.6,486.9 351.8,485.0 351.1,485.0C350.3,485.0 350.0,519.2 350.0,619.0C350.0,762.4 350.2,756.6 345.3,752.7C344.3,751.8 339.4,747.9 334.5,743.8C323.9,735.1 302.4,717.7 293.1,710.2C289.5,707.3 285.8,704.4 285.0,703.7C284.2,703.0 278.8,698.7 273.0,694.0C267.2,689.4 262.3,685.3 262.0,685.0C261.7,684.7 257.7,681.4 253.0,677.7C248.3,674.0 243.5,670.0 242.2,668.9L240.0,666.8L240.0,614.6L240.0,562.3L242.3,560.2C244.4,558.2 245.7,558.0 255.2,558.0C267.8,558.0 269.0,557.2 269.0,549.3C269.0,543.7 268.5,543.1 262.0,540.6C253.4,537.2 254.0,540.6 254.0,496.9L254.0,458.1L256.6,456.1C258.4,454.7 260.7,454.0 263.6,454.0C269.8,454.0 271.2,452.2 270.8,444.6L270.5,438.5L257.9,438.2C245.7,438.0 245.1,437.8 242.6,435.3L240.0,432.7L240.2,352.6L240.5,272.5L243.0,272.2C244.9,272.0 250.4,275.9 267.1,289.2C279.0,298.7 290.2,307.6 292.1,309.0C293.9,310.4 298.1,313.8 301.5,316.5C309.2,323.0 317.7,329.8 322.0,333.0C324.8,335.1 328.6,338.1 343.0,349.7C343.8,350.3 348.3,353.9 353.0,357.7C357.7,361.4 362.1,365.1 362.8,365.8C363.6,366.5 365.8,368.3 367.8,369.8C369.9,371.3 371.7,372.7 372.0,373.0C372.3,373.3 374.1,374.7 376.0,376.1C377.9,377.6 380.6,379.8 382.0,381.0C383.4,382.2 386.1,384.4 388.0,385.9C389.9,387.3 391.7,388.7 392.0,389.1C392.3,389.4 398.6,394.5 406.0,400.4C413.4,406.3 420.2,411.7 421.0,412.3C421.8,413.0 424.5,415.1 427.0,417.0C429.5,418.9 431.7,420.7 432.0,421.1C432.3,421.4 436.3,424.6 441.0,428.4C445.7,432.1 450.2,435.7 451.0,436.3C451.8,437.0 454.5,439.1 457.0,441.0C459.4,442.9 462.1,445.1 462.8,445.8C463.6,446.5 465.8,448.3 467.8,449.8C469.9,451.3 471.7,452.7 472.0,453.0C472.3,453.3 477.2,457.4 483.0,462.0C488.8,466.6 494.1,471.0 494.8,471.7C495.6,472.4 497.8,474.3 499.8,475.8C503.5,478.5 541.8,509.1 545.5,512.2C546.6,513.1 549.1,515.2 551.1,516.7C553.1,518.2 558.5,522.6 563.1,526.3C578.0,538.4 579.2,539.4 590.9,548.7C597.3,553.8 603.0,557.8 603.5,557.7C604.1,557.5 604.7,540.4 605.0,510.4L605.5,463.5L655.5,463.5L705.5,463.5L705.8,613.9C705.9,724.2 705.7,764.6 704.9,765.6C703.3,767.6 702.0,767.3 697.4,763.7ZM750.8,754.4C750.3,754.0 750.0,733.3 750.0,708.4L750.0,663.1L801.2,662.8C856.3,662.4 856.0,662.4 868.0,656.7C886.8,647.9 897.6,628.7 894.5,609.7C891.4,589.9 878.4,576.7 856.0,570.4C850.2,568.8 844.5,568.6 800.2,568.4C773.0,568.3 750.7,568.0 750.5,567.8C750.1,567.5 749.8,517.4 750.0,489.2L750.0,482.0L782.2,482.0C827.8,482.0 836.9,479.8 849.3,466.1C857.0,457.4 860.0,449.4 860.0,437.0C860.0,414.6 846.4,398.3 823.5,393.4C818.8,392.3 792.5,392.1 700.1,392.0L582.7,392.0L579.3,389.4C577.5,388.0 574.9,385.9 573.7,384.7C572.4,383.5 568.5,380.0 565.0,377.0C561.4,374.0 558.3,371.3 558.0,371.0C557.7,370.7 554.1,367.6 550.0,364.0C545.9,360.4 542.3,357.3 542.0,357.0C541.7,356.7 539.9,355.2 538.0,353.6C536.1,352.0 531.6,348.2 528.0,345.0C524.4,341.8 516.3,334.8 510.0,329.4C503.7,324.0 497.1,318.3 495.5,316.7C493.9,315.2 490.6,312.5 488.3,310.7C486.0,308.9 484.0,306.7 484.0,305.8C484.0,304.1 493.0,304.0 658.8,304.0C846.8,304.0 843.2,303.9 860.5,309.1C864.4,310.2 868.4,311.4 869.5,311.7C872.5,312.4 874.6,313.3 884.5,318.1C915.6,333.1 939.9,362.3 948.8,395.5C952.1,407.6 952.5,411.4 952.5,428.5C952.4,459.7 945.5,481.2 927.8,505.3C924.6,509.6 922.0,513.4 922.0,513.9C922.0,514.4 924.1,515.5 926.8,516.5C955.8,527.3 981.8,557.8 990.8,591.5C993.8,602.6 994.4,607.6 994.4,624.0C994.4,649.8 990.7,663.4 976.5,689.5C967.8,705.7 946.5,726.2 928.5,735.8C917.2,741.8 898.8,748.7 888.0,750.8C885.0,751.5 880.2,752.5 877.5,753.1C871.7,754.4 752.0,755.7 750.8,754.4Z" fill="url(#g)"/></svg>